<svg width="51" height="50" viewBox="0 0 51 50" fill="none" xmlns="http://www.w3.org/2000/svg">
<path d="M8.83333 34.375C8.83333 36.0326 9.49181 37.6223 10.6639 38.7944C11.836 39.9665 13.4257 40.625 15.0833 40.625C15.0833 42.0063 15.6321 43.3311 16.6088 44.3078C17.5856 45.2846 18.9103 45.8333 20.2917 45.8333C21.673 45.8333 22.9978 45.2846 23.9745 44.3078C24.9513 43.3311 25.5 42.0063 25.5 40.625C25.5 42.0063 26.0487 43.3311 27.0255 44.3078C28.0022 45.2846 29.327 45.8333 30.7083 45.8333C32.0897 45.8333 33.4144 45.2846 34.3912 44.3078C35.3679 43.3311 35.9167 42.0063 35.9167 40.625C37.0247 40.6251 38.1128 40.3306 39.0696 39.7717C40.0263 39.2129 40.8173 38.4097 41.3615 37.4445C41.9057 36.4793 42.1835 35.3868 42.1664 34.2789C42.1494 33.171 41.8382 32.0876 41.2646 31.1396C42.6905 30.864 43.9761 30.1007 44.9005 28.9805C45.8249 27.8604 46.3306 26.4534 46.3306 25.001C46.3306 23.5487 45.8249 22.1417 44.9005 21.0215C43.9761 19.9014 42.6905 19.138 41.2646 18.8625C41.8387 17.9144 42.1504 16.8308 42.1677 15.7226C42.185 14.6144 41.9073 13.5215 41.363 12.556C40.8188 11.5905 40.0276 10.787 39.0705 10.2281C38.1135 9.66909 37.025 9.37467 35.9167 9.37499C35.9167 7.99365 35.3679 6.66889 34.3912 5.69214C33.4144 4.71539 32.0897 4.16666 30.7083 4.16666C29.327 4.16666 28.0022 4.71539 27.0255 5.69214C26.0487 6.66889 25.5 7.99365 25.5 9.37499C25.5 7.99365 24.9513 6.66889 23.9745 5.69214C22.9978 4.71539 21.673 4.16666 20.2917 4.16666C18.9103 4.16666 17.5856 4.71539 16.6088 5.69214C15.6321 6.66889 15.0833 7.99365 15.0833 9.37499C13.9753 9.3749 12.8872 9.66937 11.9304 10.2282C10.9737 10.7871 10.1827 11.5903 9.63849 12.5555C9.09431 13.5207 8.81651 14.6132 8.83354 15.7211C8.85057 16.8289 9.16182 17.9124 9.73541 18.8604C8.30945 19.1359 7.0239 19.8993 6.09947 21.0194C5.17505 22.1396 4.66943 23.5466 4.66943 24.999C4.66943 26.4513 5.17505 27.8583 6.09947 28.9785C7.0239 30.0986 8.30945 30.862 9.73541 31.1375C9.14476 32.1141 8.83279 33.2337 8.83333 34.375Z" stroke="#958060" stroke-width="2.8125" stroke-linecap="round" stroke-linejoin="round"/>
<path d="M16.125 30.2083L19.9625 18.6958C20.0588 18.4085 20.243 18.1587 20.489 17.9818C20.7349 17.8048 21.0303 17.7096 21.3333 17.7096C21.6364 17.7096 21.9317 17.8048 22.1777 17.9818C22.4237 18.1587 22.6078 18.4085 22.7042 18.6958L26.5417 30.2083M32.7917 17.7083V30.2083M18.2083 26.0416H24.4583" stroke="#958060" stroke-width="2.8125" stroke-linecap="round" stroke-linejoin="round"/>
</svg>
