<svg width="34" height="34" viewBox="0 0 34 34" fill="none" xmlns="http://www.w3.org/2000/svg">
<path d="M22.8438 10.3594V8.76562C22.8438 8.61953 22.7242 8.5 22.5781 8.5H9.82812C9.68203 8.5 9.5625 8.61953 9.5625 8.76562V10.3594C9.5625 10.5055 9.68203 10.625 9.82812 10.625H22.5781C22.7242 10.625 22.8438 10.5055 22.8438 10.3594ZM9.82812 13.2812C9.68203 13.2812 9.5625 13.4008 9.5625 13.5469V15.1406C9.5625 15.2867 9.68203 15.4062 9.82812 15.4062H15.9375C16.0836 15.4062 16.2031 15.2867 16.2031 15.1406V13.5469C16.2031 13.4008 16.0836 13.2812 15.9375 13.2812H9.82812ZM22.3125 17.1328C18.3514 17.1328 15.1406 20.3436 15.1406 24.3047C15.1406 28.2658 18.3514 31.4766 22.3125 31.4766C26.2736 31.4766 29.4844 28.2658 29.4844 24.3047C29.4844 20.3436 26.2736 17.1328 22.3125 17.1328ZM25.8818 27.874C24.9289 28.827 23.6605 29.3516 22.3125 29.3516C20.9645 29.3516 19.6961 28.827 18.7432 27.874C17.7902 26.9211 17.2656 25.6527 17.2656 24.3047C17.2656 22.9566 17.7902 21.6883 18.7432 20.7354C19.6961 19.7824 20.9645 19.2578 22.3125 19.2578C23.6605 19.2578 24.9289 19.7824 25.8818 20.7354C26.8348 21.6883 27.3594 22.9566 27.3594 24.3047C27.3594 25.6527 26.8348 26.9211 25.8818 27.874ZM25.2676 21.7812H23.7967C23.7104 21.7812 23.6307 21.8211 23.5809 21.8908L21.4725 24.8061L20.7055 23.7469C20.6809 23.7127 20.6485 23.6849 20.6109 23.6658C20.5734 23.6467 20.5318 23.6369 20.4896 23.6373H19.0254C18.8096 23.6373 18.6834 23.883 18.8096 24.059L21.26 27.449C21.3662 27.5951 21.582 27.5951 21.6883 27.449L25.4801 22.2029C25.6096 22.027 25.4834 21.7812 25.2676 21.7812ZM14.6094 28.2891H6.90625V4.91406H25.5V16.3359C25.5 16.482 25.6195 16.6016 25.7656 16.6016H27.625C27.7711 16.6016 27.8906 16.482 27.8906 16.3359V3.58594C27.8906 2.99824 27.4158 2.52344 26.8281 2.52344H5.57812C4.99043 2.52344 4.51562 2.99824 4.51562 3.58594V29.6172C4.51562 30.2049 4.99043 30.6797 5.57812 30.6797H14.6094C14.7555 30.6797 14.875 30.5602 14.875 30.4141V28.5547C14.875 28.4086 14.7555 28.2891 14.6094 28.2891Z" fill="#F7F7F7"/>
</svg>
