<svg width="50" height="50" viewBox="0 0 50 50" fill="none" xmlns="http://www.w3.org/2000/svg">
<path fill-rule="evenodd" clip-rule="evenodd" d="M12.2 24.9999C12.2002 22.5366 12.9112 20.1258 14.2477 18.0565C15.5841 15.9873 17.4892 14.3477 19.7344 13.3343C21.9796 12.321 24.4695 11.977 26.9053 12.3437C29.3412 12.7104 31.6195 13.7721 33.4669 15.4015C35.3142 17.0309 36.6522 19.1587 37.3203 21.5297C37.9883 23.9007 37.9581 26.414 37.2331 28.7682C36.5082 31.1224 35.1193 33.2174 33.2332 34.8018C31.3472 36.3862 29.044 37.3928 26.6 37.7007V28.1999H29.8C30.2243 28.1999 30.6313 28.0313 30.9314 27.7313C31.2314 27.4312 31.4 27.0243 31.4 26.5999C31.4 26.1756 31.2314 25.7686 30.9314 25.4685C30.6313 25.1685 30.2243 24.9999 29.8 24.9999H26.6V21.7999C26.6 21.3756 26.7686 20.9686 27.0686 20.6685C27.3687 20.3685 27.7757 20.1999 28.2 20.1999H29C29.4243 20.1999 29.8313 20.0313 30.1314 19.7313C30.4314 19.4312 30.6 19.0243 30.6 18.5999C30.6 18.1756 30.4314 17.7686 30.1314 17.4685C29.8313 17.1685 29.4243 16.9999 29 16.9999H28.2C26.927 16.9999 25.7061 17.5056 24.8059 18.4058C23.9057 19.306 23.4 20.5269 23.4 21.7999V24.9999H20.2C19.7757 24.9999 19.3687 25.1685 19.0686 25.4685C18.7686 25.7686 18.6 26.1756 18.6 26.5999C18.6 27.0243 18.7686 27.4312 19.0686 27.7313C19.3687 28.0313 19.7757 28.1999 20.2 28.1999H23.4V37.7007C20.3066 37.311 17.4618 35.8056 15.3996 33.4671C13.3374 31.1286 12.1997 28.1178 12.2 24.9999ZM25 40.9999C33.8368 40.9999 41 33.8367 41 24.9999C41 16.1631 33.8368 8.99992 25 8.99992C16.1632 8.99992 9 16.1631 9 24.9999C9 33.8367 16.1632 40.9999 25 40.9999Z" fill="#958060"/>
</svg>
