<svg width="50" height="50" viewBox="0 0 50 50" fill="none" xmlns="http://www.w3.org/2000/svg">
<path d="M32.8125 27.0833C32.8125 26.6689 32.6479 26.2715 32.3549 25.9785C32.0618 25.6855 31.6644 25.5208 31.25 25.5208H18.75C18.3356 25.5208 17.9382 25.6855 17.6451 25.9785C17.3521 26.2715 17.1875 26.6689 17.1875 27.0833C17.1875 27.4977 17.3521 27.8952 17.6451 28.1882C17.9382 28.4812 18.3356 28.6458 18.75 28.6458H31.25C31.6644 28.6458 32.0618 28.4812 32.3549 28.1882C32.6479 27.8952 32.8125 27.4977 32.8125 27.0833ZM32.8125 35.4167C32.8125 35.0023 32.6479 34.6048 32.3549 34.3118C32.0618 34.0188 31.6644 33.8542 31.25 33.8542H18.75C18.3356 33.8542 17.9382 34.0188 17.6451 34.3118C17.3521 34.6048 17.1875 35.0023 17.1875 35.4167C17.1875 35.8311 17.3521 36.2285 17.6451 36.5215C17.9382 36.8146 18.3356 36.9792 18.75 36.9792H31.25C31.6644 36.9792 32.0618 36.8146 32.3549 36.5215C32.6479 36.2285 32.8125 35.8311 32.8125 35.4167Z" fill="#958060"/>
<path fill-rule="evenodd" clip-rule="evenodd" d="M14.5833 4.6875C13.0638 4.6875 11.6066 5.29111 10.5322 6.36553C9.45773 7.43996 8.85413 8.8972 8.85413 10.4167V39.5833C8.85413 41.1028 9.45773 42.56 10.5322 43.6345C11.6066 44.7089 13.0638 45.3125 14.5833 45.3125H35.4166C36.9361 45.3125 38.3933 44.7089 39.4678 43.6345C40.5422 42.56 41.1458 41.1028 41.1458 39.5833V16.6C41.1458 15.8062 40.8875 15.0354 40.4083 14.4021L34.1625 6.13542C33.8226 5.68566 33.3831 5.32083 32.8785 5.0696C32.3739 4.81837 31.8178 4.68758 31.2541 4.6875H14.5833ZM11.9791 10.4167C11.9791 8.97917 13.1458 7.8125 14.5833 7.8125H29.6875V16.9729C29.6875 17.8354 30.3875 18.5354 31.25 18.5354H38.0208V39.5833C38.0208 41.0208 36.8541 42.1875 35.4166 42.1875H14.5833C13.1458 42.1875 11.9791 41.0208 11.9791 39.5833V10.4167Z" fill="#958060"/>
</svg>
