<svg width="28" height="31" viewBox="0 0 28 31" fill="none" xmlns="http://www.w3.org/2000/svg">
<path d="M15.4167 2.375V8.20833C15.4167 8.59511 15.5703 8.96604 15.8438 9.23953C16.1173 9.51302 16.4882 9.66667 16.875 9.66667H22.7084" stroke="#958060" stroke-width="3.33333" stroke-linecap="round" stroke-linejoin="round"/>
<path d="M9.58335 28.625H5.20835C4.43481 28.625 3.69294 28.3177 3.14596 27.7707C2.59898 27.2237 2.29169 26.4819 2.29169 25.7083V5.29167C2.29169 4.51812 2.59898 3.77625 3.14596 3.22927C3.69294 2.68229 4.43481 2.375 5.20835 2.375H15.4167L22.7084 9.66667V15.5" stroke="#958060" stroke-width="3.33333" stroke-linecap="round" stroke-linejoin="round"/>
<path d="M15.4167 28.625V22.7917C15.4167 22.0181 15.724 21.2763 16.271 20.7293C16.8179 20.1823 17.5598 19.875 18.3334 19.875C19.1069 19.875 19.8488 20.1823 20.3957 20.7293C20.9427 21.2763 21.25 22.0181 21.25 22.7917V28.625M15.4167 25.7083H21.25M25.625 19.875V28.625" stroke="#958060" stroke-width="3.33333" stroke-linecap="round" stroke-linejoin="round"/>
</svg>
