<svg width="47" height="47" viewBox="0 0 47 47" fill="none" xmlns="http://www.w3.org/2000/svg">
<path d="M30.8438 25.4583C30.8438 25.0688 30.689 24.6952 30.4136 24.4198C30.1381 24.1443 29.7645 23.9896 29.375 23.9896H17.625C17.2355 23.9896 16.8619 24.1443 16.5864 24.4198C16.311 24.6952 16.1562 25.0688 16.1562 25.4583C16.1562 25.8478 16.311 26.2214 16.5864 26.4969C16.8619 26.7723 17.2355 26.9271 17.625 26.9271H29.375C29.7645 26.9271 30.1381 26.7723 30.4136 26.4969C30.689 26.2214 30.8438 25.8478 30.8438 25.4583ZM30.8438 33.2916C30.8438 32.9021 30.689 32.5285 30.4136 32.2531C30.1381 31.9776 29.7645 31.8229 29.375 31.8229H17.625C17.2355 31.8229 16.8619 31.9776 16.5864 32.2531C16.311 32.5285 16.1562 32.9021 16.1562 33.2916C16.1562 33.6812 16.311 34.0548 16.5864 34.3302C16.8619 34.6057 17.2355 34.7604 17.625 34.7604H29.375C29.7645 34.7604 30.1381 34.6057 30.4136 34.3302C30.689 34.0548 30.8438 33.6812 30.8438 33.2916Z" fill="#F7F7F7"/>
<path fill-rule="evenodd" clip-rule="evenodd" d="M13.7084 4.40625C12.2801 4.40625 10.9103 4.97364 9.90035 5.9836C8.89039 6.99356 8.323 8.36337 8.323 9.79167V37.2083C8.323 38.6366 8.89039 40.0064 9.90035 41.0164C10.9103 42.0264 12.2801 42.5938 13.7084 42.5938H33.2917C34.72 42.5938 36.0899 42.0264 37.0998 41.0164C38.1098 40.0064 38.6772 38.6366 38.6772 37.2083V15.604C38.6772 14.8579 38.4343 14.1333 37.9839 13.538L32.1128 5.76729C31.7934 5.34452 31.3803 5.00158 30.9059 4.76542C30.4315 4.52927 29.9089 4.40632 29.379 4.40625H13.7084ZM11.2605 9.79167C11.2605 8.44042 12.3572 7.34375 13.7084 7.34375H27.9063V15.9545C27.9063 16.7653 28.5643 17.4233 29.3751 17.4233H35.7397V37.2083C35.7397 38.5596 34.643 39.6562 33.2917 39.6562H13.7084C12.3572 39.6562 11.2605 38.5596 11.2605 37.2083V9.79167Z" fill="#F7F7F7"/>
</svg>
