<svg width="50" height="50" viewBox="0 0 50 50" fill="none" xmlns="http://www.w3.org/2000/svg">
<path fill-rule="evenodd" clip-rule="evenodd" d="M12.2 25C12.2002 22.5367 12.9112 20.1258 14.2477 18.0566C15.5841 15.9874 17.4892 14.3478 19.7344 13.3344C21.9796 12.3211 24.4695 11.9771 26.9053 12.3438C29.3412 12.7105 31.6195 13.7722 33.4669 15.4016C35.3142 17.031 36.6522 19.1588 37.3203 21.5298C37.9883 23.9007 37.9581 26.4141 37.2331 28.7683C36.5082 31.1225 35.1193 33.2175 33.2332 34.8019C31.3472 36.3863 29.044 37.3929 26.6 37.7008V28.2H29.8C30.2243 28.2 30.6313 28.0314 30.9314 27.7314C31.2314 27.4313 31.4 27.0243 31.4 26.6C31.4 26.1757 31.2314 25.7687 30.9314 25.4686C30.6313 25.1686 30.2243 25 29.8 25H26.6V21.8C26.6 21.3757 26.7686 20.9687 27.0686 20.6686C27.3687 20.3686 27.7757 20.2 28.2 20.2H29C29.4243 20.2 29.8313 20.0314 30.1314 19.7314C30.4314 19.4313 30.6 19.0243 30.6 18.6C30.6 18.1757 30.4314 17.7687 30.1314 17.4686C29.8313 17.1686 29.4243 17 29 17H28.2C26.927 17 25.7061 17.5057 24.8059 18.4059C23.9057 19.3061 23.4 20.527 23.4 21.8V25H20.2C19.7757 25 19.3687 25.1686 19.0686 25.4686C18.7686 25.7687 18.6 26.1757 18.6 26.6C18.6 27.0243 18.7686 27.4313 19.0686 27.7314C19.3687 28.0314 19.7757 28.2 20.2 28.2H23.4V37.7008C20.3066 37.3111 17.4618 35.8057 15.3996 33.4672C13.3374 31.1287 12.1997 28.1179 12.2 25ZM25 41C33.8368 41 41 33.8368 41 25C41 16.1632 33.8368 9 25 9C16.1632 9 9 16.1632 9 25C9 33.8368 16.1632 41 25 41Z" fill="#F7F7F7"/>
</svg>
