<svg width="50" height="50" viewBox="0 0 50 50" fill="none" xmlns="http://www.w3.org/2000/svg">
<path d="M19.5273 11C14.8465 11 11 14.8412 11 19.5273V31.4727C11 36.1535 14.8412 40 19.5273 40H31.4727C36.1535 40 40 36.1588 40 31.4727V19.5286C40 14.8465 36.1588 11 31.4727 11H19.5273ZM19.5273 13.6364H31.4727C32.2466 13.6353 33.0131 13.787 33.7283 14.0827C34.4435 14.3783 35.0933 14.8122 35.6405 15.3595C36.1878 15.9067 36.6217 16.5565 36.9173 17.2717C37.213 17.9869 37.3647 18.7534 37.3636 19.5273V31.4727C37.3647 32.2466 37.213 33.0131 36.9173 33.7283C36.6217 34.4435 36.1878 35.0933 35.6405 35.6405C35.0933 36.1878 34.4435 36.6217 33.7283 36.9173C33.0131 37.213 32.2466 37.3647 31.4727 37.3636H19.5286C18.7546 37.3649 17.988 37.2133 17.2726 36.9177C16.5573 36.6221 15.9073 36.1883 15.3599 35.641C14.8126 35.0938 14.3786 34.4439 14.0828 33.7286C13.787 33.0133 13.6353 32.2467 13.6364 31.4727V19.5286C13.6351 18.7546 13.7867 17.988 14.0823 17.2726C14.3779 16.5573 14.8117 15.9073 15.359 15.3599C15.9062 14.8126 16.5561 14.3786 17.2714 14.0828C17.9867 13.787 18.7533 13.6353 19.5273 13.6364ZM33.2852 16.5205C33.1281 16.5195 32.9723 16.5497 32.8269 16.6093C32.6815 16.669 32.5495 16.7569 32.4384 16.868C32.3273 16.9791 32.2393 17.1112 32.1797 17.2565C32.12 17.4019 32.0899 17.5577 32.0909 17.7148C32.0909 18.3792 32.6208 18.9091 33.2852 18.9091C33.4424 18.9103 33.5983 18.8803 33.7439 18.8207C33.8894 18.7611 34.0216 18.6732 34.1329 18.5621C34.2441 18.451 34.3322 18.3189 34.3919 18.1734C34.4516 18.0279 34.4818 17.8721 34.4808 17.7148C34.4818 17.5576 34.4516 17.4017 34.3919 17.2562C34.3322 17.1108 34.2441 16.9787 34.1329 16.8675C34.0216 16.7564 33.8894 16.6685 33.7439 16.6089C33.5983 16.5494 33.4424 16.5193 33.2852 16.5205ZM25.5 17.5909C21.15 17.5909 17.5909 21.15 17.5909 25.5C17.5909 29.85 21.15 33.4091 25.5 33.4091C29.85 33.4091 33.4091 29.85 33.4091 25.5C33.4091 21.15 29.85 17.5909 25.5 17.5909ZM25.5 20.2273C28.4303 20.2273 30.7727 22.5697 30.7727 25.5C30.7727 28.4303 28.4303 30.7727 25.5 30.7727C22.5697 30.7727 20.2273 28.4303 20.2273 25.5C20.2273 22.5697 22.5697 20.2273 25.5 20.2273Z" fill="#958060"/>
</svg>
