<svg width="190" height="98" viewBox="0 0 190 98" fill="none" xmlns="http://www.w3.org/2000/svg">
<mask id="mask0_4005_180" style="mask-type:luminance" maskUnits="userSpaceOnUse" x="0" y="0" width="190" height="98">
<path d="M190 0H0V98H190V0Z" fill="white"/>
</mask>
<g mask="url(#mask0_4005_180)">
<path d="M55.6436 17.1786V50.6712C55.6436 50.6712 56.5537 67.242 40.6906 67.242C24.8275 67.242 25.4776 50.6712 25.4776 50.6712" stroke="#F7F7F7" stroke-width="6.53707"/>
<path d="M78.9369 53.4173C78.9369 53.4173 78.9369 46.7913 70.825 46.7913C62.7131 46.7913 61.1738 56.1986 61.1738 57.0984C61.1738 61.1068 64.4193 65.8514 70.825 65.8514C77.2306 65.8514 82.2631 69.2871 82.2631 75.0951C82.2631 78.3672 80.8886 84.0934 70.825 84.0934C60.7613 84.0934 61.1738 76.813 61.1738 76.813" stroke="#F7F7F7" stroke-width="3.59539"/>
<path d="M74.1503 47.7729C72.6089 47.6093 70.8249 47.6093 70.8249 47.6093C60.6874 47.6093 61.1736 56.1986 61.1736 57.9164C61.1736 59.6343 61.9001 62.4974 65.1451 64.3789" stroke="#F7F7F7" stroke-width="6.53707"/>
<path d="M43.6464 73.5409C60.8069 73.5409 74.7182 59.5137 74.7182 42.2103C74.7182 24.9069 60.8069 10.8798 43.6464 10.8798C26.486 10.8798 12.5747 24.9069 12.5747 42.2103C12.5747 59.5137 26.486 73.5409 43.6464 73.5409Z" stroke="#F7F7F7" stroke-width="2.4514"/>
<path d="M23.0345 66.5626L25.4549 68.4879L7.38249 96.2003L0.648926 90.3923L23.0345 66.5626Z" fill="#F7F7F7"/>
<path d="M98.3936 39.4046C98.3936 41.531 97.9429 43.1816 97.0416 44.3563C96.1487 45.5223 94.7796 46.1054 92.9343 46.1054C91.4547 46.1054 90.2131 45.7154 89.2097 44.935C88.2063 44.1462 87.5047 42.9715 87.1051 41.4109L88.623 40.8322C88.9886 42.2212 89.5329 43.1988 90.2556 43.7645C90.9784 44.3219 91.8713 44.6006 92.9343 44.6006C93.7166 44.6006 94.3501 44.442 94.8347 44.1248C95.328 43.8076 95.7022 43.4044 95.9572 42.9157C96.2209 42.4184 96.3995 41.8654 96.493 41.2566C96.5866 40.6392 96.6333 40.0219 96.6333 39.4046V29.0253H98.3936V39.4046ZM113.585 39.8547C113.585 40.7894 113.436 41.6381 113.139 42.4012C112.85 43.1644 112.429 43.8203 111.876 44.3691C111.332 44.9093 110.677 45.3337 109.912 45.6424C109.146 45.9511 108.292 46.1054 107.348 46.1054C106.421 46.1054 105.575 45.9511 104.81 45.6424C104.044 45.3337 103.385 44.9093 102.832 44.3691C102.288 43.8203 101.867 43.1644 101.57 42.4012C101.28 41.6381 101.136 40.7894 101.136 39.8547C101.136 38.9458 101.28 38.1011 101.57 37.3209C101.867 36.5322 102.288 35.8633 102.832 35.3146C103.385 34.7572 104.044 34.3241 104.81 34.0156C105.575 33.6982 106.421 33.5396 107.348 33.5396C108.292 33.5396 109.146 33.6982 109.912 34.0156C110.677 34.3241 111.332 34.7572 111.876 35.3146C112.429 35.8633 112.85 36.5322 113.139 37.3209C113.436 38.1011 113.585 38.9458 113.585 39.8547ZM111.838 39.8547C111.838 39.1687 111.736 38.5385 111.532 37.964C111.336 37.381 111.043 36.8708 110.651 36.4335C110.26 35.9962 109.784 35.6533 109.223 35.4046C108.67 35.1559 108.045 35.0316 107.348 35.0316C106.651 35.0316 106.021 35.1559 105.46 35.4046C104.907 35.6533 104.44 35.9962 104.057 36.4335C103.674 36.8708 103.381 37.381 103.177 37.964C102.981 38.5385 102.883 39.1687 102.883 39.8547C102.883 40.5407 102.981 41.1751 103.177 41.7582C103.381 42.3327 103.674 42.83 104.057 43.2502C104.44 43.6703 104.907 44.0005 105.46 44.2405C106.021 44.4806 106.651 44.6006 107.348 44.6006C108.045 44.6006 108.67 44.4806 109.223 44.2405C109.784 44.0005 110.26 43.6703 110.651 43.2502C111.043 42.83 111.336 42.3327 111.532 41.7582C111.736 41.1751 111.838 40.5407 111.838 39.8547ZM127.54 39.829C127.54 40.7465 127.399 41.591 127.119 42.3628C126.838 43.1343 126.434 43.7989 125.907 44.3563C125.388 44.905 124.759 45.3337 124.019 45.6424C123.279 45.9511 122.45 46.1054 121.532 46.1054C120.886 46.1054 120.265 45.9897 119.669 45.7582C119.083 45.5267 118.534 45.1837 118.024 44.7292V45.8096H116.277V29.0253H118.024V34.9287C118.534 34.4913 119.083 34.1527 119.669 33.9127C120.265 33.664 120.886 33.5396 121.532 33.5396C122.45 33.5396 123.279 33.6982 124.019 34.0156C124.759 34.3241 125.388 34.7572 125.907 35.3146C126.434 35.8633 126.838 36.5277 127.119 37.3082C127.399 38.0797 127.54 38.92 127.54 39.829ZM125.767 39.829C125.767 39.143 125.677 38.5128 125.499 37.9384C125.329 37.3553 125.065 36.8494 124.708 36.4206C124.351 35.9919 123.904 35.6533 123.368 35.4046C122.841 35.1559 122.229 35.0316 121.532 35.0316C120.188 35.0316 119.019 35.5675 118.024 36.6393V43.0443C118.534 43.6017 119.078 44.0005 119.657 44.2405C120.243 44.4806 120.868 44.6006 121.532 44.6006C122.229 44.6006 122.837 44.4762 123.356 44.2277C123.883 43.979 124.325 43.6404 124.682 43.2115C125.04 42.7829 125.307 42.2813 125.486 41.7067C125.673 41.1238 125.767 40.4978 125.767 39.829ZM98.5976 67.7772C98.5976 68.4803 98.453 69.119 98.1639 69.6936C97.8749 70.2595 97.4879 70.7482 97.0033 71.1599C96.5185 71.5713 95.9616 71.8887 95.3322 72.1116C94.703 72.3346 94.0483 72.446 93.368 72.446C92.4326 72.446 91.5738 72.2703 90.7914 71.9187C90.009 71.5671 89.3884 71.0483 88.929 70.3625V72.1502H87.4494V67.0442H88.929C88.929 67.6186 89.0609 68.1459 89.3244 68.6261C89.5881 69.0976 89.924 69.505 90.3322 69.8479C90.7404 70.191 91.208 70.4609 91.7352 70.6583C92.271 70.8469 92.8152 70.9411 93.368 70.9411C93.8612 70.9411 94.316 70.8726 94.7329 70.7355C95.1495 70.5897 95.5151 70.3881 95.8297 70.131C96.1443 69.8651 96.3909 69.5436 96.5696 69.1663C96.7567 68.7891 96.8501 68.3602 96.8501 67.8801C96.8501 67.34 96.7312 66.877 96.493 66.491C96.2634 66.1053 95.9488 65.7751 95.5492 65.5007C95.158 65.2264 94.7158 64.9949 94.2226 64.8062C93.7293 64.6089 93.2276 64.416 92.7175 64.2274C92.1137 64.0131 91.51 63.7901 90.9062 63.5586C90.3025 63.3186 89.7625 63.0185 89.2863 62.6582C88.8101 62.2982 88.4231 61.8608 88.1255 61.3465C87.8279 60.8234 87.679 60.176 87.679 59.4043C87.679 58.7185 87.8236 58.1097 88.1127 57.578C88.4018 57.0377 88.7802 56.5834 89.248 56.2146C89.7156 55.846 90.2598 55.5672 90.8806 55.3786C91.5014 55.1815 92.1392 55.0828 92.7939 55.0828C93.6018 55.0828 94.3459 55.25 95.0262 55.5844C95.715 55.9188 96.2506 56.429 96.6333 57.115V55.3658H98.1767V60.1631H96.6333C96.6333 59.6572 96.5271 59.1857 96.3145 58.7484C96.1104 58.3026 95.8297 57.9253 95.4726 57.6166C95.1154 57.2993 94.7072 57.0507 94.248 56.8705C93.7889 56.6819 93.3042 56.5876 92.7939 56.5876C92.3433 56.5876 91.9138 56.639 91.5056 56.7419C91.0975 56.8448 90.7404 57.012 90.4342 57.2435C90.1281 57.4665 89.8814 57.7581 89.6944 58.1182C89.5159 58.4783 89.4265 58.9071 89.4265 59.4043C89.4265 59.8416 89.5329 60.2146 89.7455 60.5234C89.9665 60.8319 90.2598 61.1063 90.6255 61.3465C90.9913 61.578 91.4121 61.7923 91.8884 61.9896C92.373 62.1782 92.8663 62.3711 93.368 62.5683C93.9972 62.7913 94.6222 63.0399 95.243 63.3143C95.8638 63.5887 96.4208 63.9188 96.9139 64.3046C97.4071 64.6904 97.8111 65.1663 98.1258 65.7322C98.4404 66.2896 98.5976 66.9712 98.5976 67.7772ZM103.139 66.7741C103.266 68.043 103.725 69.0547 104.516 69.8093C105.307 70.5639 106.336 70.9411 107.603 70.9411C108.496 70.9411 109.291 70.7569 109.988 70.3881C110.686 70.0194 111.208 69.5608 111.557 69.0119L112.782 69.8608C112.186 70.7011 111.476 71.3443 110.651 71.7901C109.827 72.2274 108.81 72.446 107.603 72.446C106.685 72.446 105.843 72.2917 105.077 71.983C104.312 71.6742 103.649 71.2456 103.087 70.6969C102.535 70.1395 102.105 69.4793 101.799 68.7161C101.493 67.953 101.34 67.1041 101.34 66.1696C101.34 65.2606 101.476 64.4247 101.748 63.6615C102.029 62.8897 102.429 62.2253 102.947 61.6679C103.474 61.102 104.112 60.6647 104.86 60.3561C105.609 60.0387 106.446 59.8802 107.373 59.8802C108.385 59.8802 109.27 60.0517 110.026 60.3946C110.783 60.7377 111.412 61.2136 111.914 61.8224C112.424 62.4225 112.799 63.1427 113.037 63.9831C113.283 64.8234 113.407 65.7537 113.407 66.7741H103.139ZM111.557 65.2692C111.361 63.9573 110.889 62.9799 110.141 62.3368C109.393 61.6936 108.47 61.3721 107.373 61.3721C106.812 61.3721 106.293 61.4665 105.817 61.6552C105.341 61.8351 104.92 62.0968 104.554 62.4397C104.189 62.7826 103.883 63.1985 103.636 63.6872C103.389 64.1674 103.232 64.6948 103.164 65.2692H111.557ZM117.399 66.7741C117.527 68.043 117.986 69.0547 118.777 69.8093C119.568 70.5639 120.596 70.9411 121.863 70.9411C122.756 70.9411 123.551 70.7569 124.249 70.3881C124.946 70.0194 125.469 69.5608 125.818 69.0119L127.042 69.8608C126.447 70.7011 125.737 71.3443 124.912 71.7901C124.087 72.2274 123.071 72.446 121.863 72.446C120.945 72.446 120.103 72.2917 119.338 71.983C118.573 71.6742 117.909 71.2456 117.348 70.6969C116.795 70.1395 116.366 69.4793 116.06 68.7161C115.754 67.953 115.601 67.1041 115.601 66.1696C115.601 65.2606 115.737 64.4247 116.009 63.6615C116.289 62.8897 116.689 62.2253 117.208 61.6679C117.735 61.102 118.373 60.6647 119.121 60.3561C119.869 60.0387 120.707 59.8802 121.634 59.8802C122.646 59.8802 123.53 60.0517 124.287 60.3946C125.044 60.7377 125.673 61.2136 126.175 61.8224C126.685 62.4225 127.059 63.1427 127.297 63.9831C127.544 64.8234 127.667 65.7537 127.667 66.7741H117.399ZM125.818 65.2692C125.622 63.9573 125.15 62.9799 124.402 62.3368C123.653 61.6936 122.731 61.3721 121.634 61.3721C121.073 61.3721 120.554 61.4665 120.078 61.6552C119.601 61.8351 119.181 62.0968 118.815 62.4397C118.449 62.7826 118.143 63.1985 117.896 63.6872C117.65 64.1674 117.493 64.6948 117.425 65.2692H125.818ZM141.774 72.1502H139.287L134.427 66.7741L132.285 68.7547V72.1502H130.537V55.3658H132.285V66.6196L139.058 60.1631H141.558L135.601 65.6679L141.774 72.1502ZM145.92 66.7741C146.048 68.043 146.507 69.0547 147.298 69.8093C148.088 70.5639 149.117 70.9411 150.384 70.9411C151.277 70.9411 152.072 70.7569 152.77 70.3881C153.467 70.0194 153.99 69.5608 154.338 69.0119L155.563 69.8608C154.968 70.7011 154.258 71.3443 153.433 71.7901C152.608 72.2274 151.592 72.446 150.384 72.446C149.466 72.446 148.624 72.2917 147.859 71.983C147.094 71.6742 146.43 71.2456 145.869 70.6969C145.316 70.1395 144.887 69.4793 144.581 68.7161C144.275 67.953 144.121 67.1041 144.121 66.1696C144.121 65.2606 144.258 64.4247 144.53 63.6615C144.81 62.8897 145.21 62.2253 145.729 61.6679C146.256 61.102 146.894 60.6647 147.642 60.3561C148.39 60.0387 149.228 59.8802 150.155 59.8802C151.167 59.8802 152.051 60.0517 152.808 60.3946C153.565 60.7377 154.194 61.2136 154.696 61.8224C155.206 62.4225 155.58 63.1427 155.818 63.9831C156.065 64.8234 156.188 65.7537 156.188 66.7741H145.92ZM154.338 65.2692C154.143 63.9573 153.671 62.9799 152.923 62.3368C152.174 61.6936 151.252 61.3721 150.155 61.3721C149.594 61.3721 149.075 61.4665 148.599 61.6552C148.123 61.8351 147.701 62.0968 147.336 62.4397C146.97 62.7826 146.664 63.1985 146.418 63.6872C146.171 64.1674 146.014 64.6948 145.946 65.2692H154.338ZM169.671 61.8481C169.041 61.5308 168.293 61.3721 167.426 61.3721C166.711 61.3721 166.074 61.5264 165.512 61.8351C164.951 62.1439 164.475 62.5511 164.084 63.057C163.692 63.5543 163.391 64.1289 163.178 64.7805C162.974 65.4235 162.872 66.0881 162.872 66.7741V70.6453H165.563V72.1502H158.433V70.6453H161.124V61.6679H158.433V60.1631H162.872V63.1728C163.671 60.9777 165.189 59.8802 167.426 59.8802C168.029 59.8802 168.552 59.9188 168.994 59.9959C169.446 60.0731 169.863 60.2104 170.244 60.4075L169.671 61.8481Z" fill="#F7F7F7"/>
<path d="M85.3458 9.65271V91.4557" stroke="#F7F7F7" stroke-width="0.980561"/>
</g>
</svg>
