<svg width="29" height="29" viewBox="0 0 29 29" fill="none" xmlns="http://www.w3.org/2000/svg">
<path d="M8.52732 0C3.84645 0 0 3.84118 0 8.52732V20.4727C0 25.1535 3.84118 29 8.52732 29H20.4727C25.1535 29 29 25.1588 29 20.4727V8.52864C29 3.84646 25.1588 0 20.4727 0H8.52732ZM8.52732 2.63636H20.4727C21.2466 2.63532 22.0131 2.78699 22.7283 3.08267C23.4435 3.37835 24.0933 3.81223 24.6405 4.35946C25.1878 4.9067 25.6217 5.55652 25.9173 6.27172C26.213 6.98691 26.3647 7.75341 26.3636 8.52732V20.4727C26.3647 21.2466 26.213 22.0131 25.9173 22.7283C25.6217 23.4435 25.1878 24.0933 24.6405 24.6405C24.0933 25.1878 23.4435 25.6217 22.7283 25.9173C22.0131 26.213 21.2466 26.3647 20.4727 26.3636H8.52864C7.75462 26.3649 6.98798 26.2133 6.27263 25.9177C5.55728 25.6221 4.9073 25.1883 4.35993 24.641C3.81256 24.0938 3.37855 23.4439 3.08279 22.7286C2.78703 22.0133 2.63532 21.2467 2.63636 20.4727V8.52864C2.63515 7.75462 2.78668 6.98798 3.08229 6.27263C3.37789 5.55728 3.81174 4.9073 4.35899 4.35993C4.90625 3.81256 5.55613 3.37855 6.27141 3.08279C6.98669 2.78703 7.7533 2.63532 8.52732 2.63636ZM22.2852 5.52055C22.1281 5.51949 21.9723 5.54967 21.8269 5.60931C21.6815 5.66896 21.5495 5.75689 21.4384 5.868C21.3273 5.97911 21.2393 6.11118 21.1797 6.25655C21.12 6.40192 21.0899 6.55769 21.0909 6.71482C21.0909 7.37918 21.6208 7.90909 22.2852 7.90909C22.4424 7.91032 22.5983 7.88027 22.7439 7.82071C22.8894 7.76114 23.0216 7.67324 23.1329 7.56211C23.2441 7.45099 23.3322 7.31885 23.3919 7.1734C23.4516 7.02794 23.4818 6.87206 23.4808 6.71482C23.4818 6.55758 23.4516 6.4017 23.3919 6.25624C23.3322 6.11078 23.2441 5.97865 23.1329 5.86752C23.0216 5.7564 22.8894 5.6685 22.7439 5.60893C22.5983 5.54936 22.4424 5.51932 22.2852 5.52055ZM14.5 6.59091C10.15 6.59091 6.59091 10.15 6.59091 14.5C6.59091 18.85 10.15 22.4091 14.5 22.4091C18.85 22.4091 22.4091 18.85 22.4091 14.5C22.4091 10.15 18.85 6.59091 14.5 6.59091ZM14.5 9.22727C17.4303 9.22727 19.7727 11.5697 19.7727 14.5C19.7727 17.4303 17.4303 19.7727 14.5 19.7727C11.5697 19.7727 9.22727 17.4303 9.22727 14.5C9.22727 11.5697 11.5697 9.22727 14.5 9.22727Z" fill="#F7F7F7"/>
</svg>
