<svg width="28" height="28" viewBox="0 0 28 28" fill="none" xmlns="http://www.w3.org/2000/svg">
<path d="M25.0386 5.25H3.54143C3.06631 5.25 2.61066 5.44049 2.2747 5.77955C1.93874 6.11862 1.75 6.57849 1.75 7.058V21.522C1.75 22.0015 1.93874 22.4614 2.2747 22.8004C2.61066 23.1395 3.06631 23.33 3.54143 23.33H25.0386C25.5137 23.33 25.9693 23.1395 26.3053 22.8004C26.6413 22.4614 26.83 22.0015 26.83 21.522V7.058C26.83 6.57849 26.6413 6.11862 26.3053 5.77955C25.9693 5.44049 25.5137 5.25 25.0386 5.25ZM22.8642 15.9522C22.9334 16.0487 22.9831 16.1579 23.0104 16.2738C23.0378 16.3896 23.0422 16.5097 23.0236 16.6273C23.0049 16.7449 22.9635 16.8576 22.9017 16.959C22.8398 17.0604 22.7588 17.1486 22.6632 17.2184C22.5677 17.2882 22.4594 17.3384 22.3446 17.3659C22.2299 17.3935 22.1108 17.398 21.9943 17.3792C21.8778 17.3604 21.7662 17.3186 21.6657 17.2562C21.5652 17.1938 21.4779 17.112 21.4087 17.0156L20.56 15.8279L19.7057 17.0156C19.566 17.2104 19.3553 17.3412 19.1201 17.3792C18.8848 17.4172 18.6442 17.3594 18.4512 17.2184C18.2581 17.0774 18.1285 16.8648 18.0908 16.6273C18.0531 16.3899 18.1105 16.147 18.2502 15.9522L19.1056 14.7657L17.7217 14.3137C17.6099 14.2766 17.5064 14.2177 17.4172 14.1402C17.3279 14.0627 17.2547 13.9683 17.2016 13.8623C17.0944 13.6481 17.0759 13.3998 17.1501 13.1719C17.1869 13.059 17.2453 12.9546 17.3221 12.8645C17.3988 12.7744 17.4924 12.7005 17.5975 12.6469C17.8096 12.5388 18.0557 12.5201 18.2815 12.595L19.6643 13.047V11.578C19.6643 11.3382 19.7587 11.1083 19.9266 10.9388C20.0946 10.7692 20.3224 10.674 20.56 10.674C20.7976 10.674 21.0254 10.7692 21.1934 10.9388C21.3613 11.1083 21.4557 11.3382 21.4557 11.578V13.047L22.8385 12.595C22.9503 12.5579 23.0683 12.5434 23.1856 12.5523C23.303 12.5612 23.4175 12.5934 23.5226 12.6469C23.6276 12.7005 23.7212 12.7744 23.7979 12.8645C23.8747 12.9546 23.9331 13.059 23.9699 13.1719C24.0066 13.2847 24.021 13.4038 24.0122 13.5222C24.0033 13.6407 23.9715 13.7562 23.9184 13.8623C23.8653 13.9683 23.7921 14.0627 23.7028 14.1402C23.6136 14.2177 23.5101 14.2766 23.3983 14.3137L22.0144 14.7657L22.8642 15.9522ZM14.8028 15.9522C14.872 16.0487 14.9217 16.1579 14.949 16.2738C14.9763 16.3896 14.9808 16.5097 14.9621 16.6273C14.9435 16.7449 14.902 16.8576 14.8402 16.959C14.7784 17.0604 14.6974 17.1486 14.6018 17.2184C14.5062 17.2882 14.398 17.3384 14.2832 17.3659C14.1684 17.3935 14.0494 17.398 13.9329 17.3792C13.8164 17.3604 13.7047 17.3186 13.6043 17.2562C13.5038 17.1938 13.4164 17.112 13.3473 17.0156L12.4986 15.8279L11.6443 17.0156C11.5046 17.2104 11.2939 17.3412 11.0586 17.3792C10.8234 17.4172 10.5827 17.3594 10.3897 17.2184C10.1967 17.0774 10.0671 16.8648 10.0294 16.6273C9.99172 16.3899 10.049 16.147 10.1887 15.9522L11.0442 14.7657L9.66028 14.3137C9.54846 14.2766 9.44497 14.2177 9.35573 14.1402C9.26649 14.0627 9.19324 13.9683 9.14017 13.8623C9.03298 13.6481 9.01446 13.3998 9.0887 13.1719C9.12546 13.059 9.18388 12.9546 9.26063 12.8645C9.33738 12.7744 9.43096 12.7005 9.53602 12.6469C9.7482 12.5388 9.99427 12.5201 10.2201 12.595L11.6029 13.047V11.578C11.6029 11.3382 11.6972 11.1083 11.8652 10.9388C12.0332 10.7692 12.261 10.674 12.4986 10.674C12.7361 10.674 12.964 10.7692 13.1319 10.9388C13.2999 11.1083 13.3943 11.3382 13.3943 11.578V13.047L14.777 12.595C14.8889 12.5579 15.0068 12.5434 15.1242 12.5523C15.2416 12.5612 15.3561 12.5934 15.4611 12.6469C15.5662 12.7005 15.6598 12.7744 15.7365 12.8645C15.8133 12.9546 15.8717 13.059 15.9084 13.1719C15.9452 13.2847 15.9596 13.4038 15.9507 13.5222C15.9419 13.6407 15.9101 13.7562 15.857 13.8623C15.8039 13.9683 15.7306 14.0627 15.6414 14.1402C15.5522 14.2177 15.4487 14.2766 15.3369 14.3137L13.953 14.7657L14.8028 15.9522ZM7.12429 9.77V18.81C7.12429 19.0498 7.02992 19.2797 6.86194 19.4492C6.69396 19.6188 6.46613 19.714 6.22857 19.714C5.99101 19.714 5.76319 19.6188 5.59521 19.4492C5.42723 19.2797 5.33286 19.0498 5.33286 18.81V9.77C5.33286 9.53024 5.42723 9.30031 5.59521 9.13078C5.76319 8.96124 5.99101 8.866 6.22857 8.866C6.46613 8.866 6.69396 8.96124 6.86194 9.13078C7.02992 9.30031 7.12429 9.53024 7.12429 9.77Z" fill="#686868"/>
</svg>
