<svg width="20" height="20" viewBox="0 0 20 20" fill="none" xmlns="http://www.w3.org/2000/svg">
<path d="M15 8.33333H11.6666V4.99999C11.6666 4.55797 11.4911 4.13404 11.1785 3.82148C10.8659 3.50892 10.442 3.33333 9.99998 3.33333C9.55795 3.33333 9.13403 3.50892 8.82147 3.82148C8.50891 4.13404 8.33331 4.55797 8.33331 4.99999L8.39248 8.33333H4.99998C4.55795 8.33333 4.13403 8.50892 3.82147 8.82148C3.50891 9.13404 3.33331 9.55797 3.33331 9.99999C3.33331 10.442 3.50891 10.8659 3.82147 11.1785C4.13403 11.4911 4.55795 11.6667 4.99998 11.6667L8.39248 11.6075L8.33331 15C8.33331 15.442 8.50891 15.8659 8.82147 16.1785C9.13403 16.4911 9.55795 16.6667 9.99998 16.6667C10.442 16.6667 10.8659 16.4911 11.1785 16.1785C11.4911 15.8659 11.6666 15.442 11.6666 15V11.6075L15 11.6667C15.442 11.6667 15.8659 11.4911 16.1785 11.1785C16.4911 10.8659 16.6666 10.442 16.6666 9.99999C16.6666 9.55797 16.4911 9.13404 16.1785 8.82148C15.8659 8.50892 15.442 8.33333 15 8.33333Z" fill="#958060"/>
</svg>
